<?xml version="1.0" encoding="utf-8"?>
<!-- Generator: Adobe Illustrator 16.0.3, SVG Export Plug-In . SVG Version: 6.00 Build 0)  -->
<!DOCTYPE svg PUBLIC "-//W3C//DTD SVG 1.1//EN" "http://www.w3.org/Graphics/SVG/1.1/DTD/svg11.dtd">
<svg version="1.1" id="Layer_1" xmlns="http://www.w3.org/2000/svg" xmlns:xlink="http://www.w3.org/1999/xlink" x="0px" y="0px"
	 width="2592px" height="2592px" viewBox="-46 -1087.25 2592 2592" enable-background="new -46 -1087.25 2592 2592"
	 xml:space="preserve">
<path fill="#24282D" d="M194.106-312.013h2105.875c133.279,0,241.161,107.882,241.161,241.16v803.844
	c0,133.278-107.882,241.16-241.161,241.16h-755.193l103.658,253.843l-455.874-253.843H195.158
	c-133.268,0-241.15-107.882-241.15-241.16V-70.853C-47.054-203.07,60.818-312.013,194.106-312.013z"/>
<g>
	<g>
		<path fill="#FFFFFF" d="M474.35,264.61h-43.794l-24.564-95.279c-0.913-3.391-2.461-10.402-4.649-21.033
			c-2.194-10.624-3.458-17.755-3.787-21.398c-0.497,4.468-1.737,11.643-3.722,21.529c-1.985,9.879-3.519,16.931-4.59,21.15
			l-24.44,95.031h-43.67L274.859,83.231h37.839l23.199,99.002c4.049,18.281,6.988,34.116,8.809,47.514
			c0.496-4.714,1.632-12.014,3.409-21.898c1.781-9.88,3.454-17.552,5.027-23.012l26.425-101.606h36.349l26.425,101.606
			c1.157,4.552,2.605,11.499,4.343,20.842c1.736,9.349,3.057,17.37,3.97,24.068c0.823-6.451,2.149-14.494,3.969-24.131
			c1.817-9.632,3.474-17.428,4.962-23.383l23.076-99.002H520.5L474.35,264.61z"/>
		<path fill="#FFFFFF" d="M666.397,195.01c0,22.581-5.956,40.242-17.865,52.976c-11.909,12.738-28.493,19.105-49.748,19.105
			c-13.32,0-25.06-2.917-35.234-8.744c-10.173-5.837-17.99-14.208-23.447-25.125c-5.46-10.917-8.188-23.651-8.188-38.211
			c0-22.657,5.909-40.273,17.741-52.85c11.825-12.569,28.449-18.856,49.871-18.856c13.314,0,25.063,2.897,35.234,8.684
			c10.172,5.79,17.99,14.104,23.448,24.938C663.668,167.762,666.397,180.456,666.397,195.01z M570.497,195.01
			c0,13.732,2.253,24.114,6.764,31.142c4.507,7.03,11.846,10.543,22.02,10.543c10.088,0,17.348-3.493,21.77-10.485
			c4.427-6.988,6.639-17.383,6.639-31.2c0-13.726-2.231-24.023-6.698-30.89c-4.466-6.864-11.786-10.297-21.958-10.297
			c-10.094,0-17.369,3.408-21.834,10.237C572.73,170.878,570.497,181.2,570.497,195.01z"/>
		<path fill="#FFFFFF" d="M823.707,195.01c0,22.581-5.955,40.242-17.865,52.976c-11.911,12.738-28.496,19.105-49.748,19.105
			c-13.319,0-25.062-2.917-35.234-8.744c-10.174-5.837-17.989-14.208-23.448-25.125s-8.187-23.651-8.187-38.211
			c0-22.657,5.91-40.273,17.739-52.85c11.826-12.569,28.451-18.856,49.874-18.856c13.313,0,25.059,2.897,35.234,8.684
			c10.171,5.79,17.987,14.104,23.446,24.938C820.977,167.762,823.707,180.456,823.707,195.01z M727.807,195.01
			c0,13.732,2.253,24.114,6.765,31.142c4.504,7.03,11.845,10.543,22.017,10.543c10.089,0,17.35-3.493,21.771-10.485
			c4.426-6.988,6.64-17.383,6.64-31.2c0-13.726-2.234-24.023-6.7-30.89c-4.467-6.864-11.785-10.297-21.959-10.297
			c-10.092,0-17.368,3.408-21.834,10.237C730.041,170.878,727.807,181.2,727.807,195.01z"/>
		<path fill="#FFFFFF" d="M934.99,112.636c-14.475,0-25.68,5.438-33.621,16.31c-7.938,10.877-11.909,26.037-11.909,45.472
			c0,40.443,15.174,60.665,45.53,60.665c12.733,0,28.161-3.181,46.274-9.552v32.254c-14.886,6.203-31.51,9.305-49.872,9.305
			c-26.385,0-46.568-7.999-60.542-24.009c-13.979-15.999-20.966-38.97-20.966-68.913c0-18.857,3.428-35.377,10.297-49.56
			c6.863-14.188,16.727-25.062,29.586-32.635c12.86-7.561,27.934-11.349,45.222-11.349c17.618,0,35.313,4.263,53.098,12.78
			l-12.405,31.262c-6.784-3.226-13.608-6.033-20.47-8.436C948.343,113.834,941.604,112.636,934.99,112.636z"/>
		<path fill="#FFFFFF" d="M1142.917,195.01c0,22.581-5.955,40.242-17.865,52.976c-11.911,12.738-28.495,19.105-49.748,19.105
			c-13.319,0-25.06-2.917-35.234-8.744c-10.173-5.837-17.99-14.208-23.449-25.125s-8.187-23.651-8.187-38.211
			c0-22.657,5.91-40.273,17.741-52.85c11.826-12.569,28.448-18.856,49.872-18.856c13.313,0,25.06,2.897,35.234,8.684
			c10.171,5.79,17.989,14.104,23.448,24.938C1140.188,167.762,1142.917,180.456,1142.917,195.01z M1047.017,195.01
			c0,13.732,2.253,24.114,6.764,31.142c4.507,7.03,11.847,10.543,22.018,10.543c10.089,0,17.35-3.493,21.771-10.485
			c4.425-6.988,6.639-17.383,6.639-31.2c0-13.726-2.231-24.023-6.699-30.89c-4.467-6.864-11.785-10.297-21.958-10.297
			c-10.094,0-17.369,3.408-21.834,10.237C1049.25,170.878,1047.017,181.2,1047.017,195.01z"/>
		<path fill="#FFFFFF" d="M1298.364,264.61h-37.836v-81.013c0-10.005-1.682-17.513-5.024-22.514
			c-3.354-5.007-8.624-7.509-15.819-7.509c-9.678,0-16.708,3.559-21.089,10.669c-4.388,7.116-6.576,18.818-6.576,35.108v65.259
			h-37.839V125.909h28.907l5.084,17.741h2.111c3.722-6.367,9.094-11.351,16.127-14.953c7.027-3.594,15.091-5.394,24.191-5.394
			c20.757,0,34.816,6.784,42.182,20.347h3.351c3.72-6.453,9.197-11.454,16.439-15.013c7.235-3.553,15.399-5.334,24.5-5.334
			c15.711,0,27.605,4.034,35.665,12.093c8.067,8.068,12.098,20.991,12.098,38.772v90.441h-37.964v-81.013
			c0-10.005-1.676-17.513-5.022-22.514c-3.352-5.007-8.621-7.509-15.817-7.509c-9.267,0-16.19,3.311-20.783,9.926
			c-4.585,6.619-6.885,17.119-6.885,31.51V264.61z"/>
		<path fill="#FFFFFF" d="M1547.854,264.61h-37.841v-81.013c0-10.005-1.677-17.513-5.022-22.514
			c-3.353-5.007-8.624-7.509-15.818-7.509c-9.679,0-16.711,3.559-21.092,10.669c-4.389,7.116-6.576,18.818-6.576,35.108v65.259
			h-37.838V125.909h28.907l5.086,17.741h2.108c3.723-6.367,9.095-11.351,16.128-14.953c7.027-3.594,15.092-5.394,24.193-5.394
			c20.759,0,34.814,6.784,42.18,20.347h3.35c3.722-6.453,9.202-11.454,16.441-15.013c7.235-3.553,15.397-5.334,24.497-5.334
			c15.714,0,27.608,4.034,35.667,12.093c8.069,8.068,12.1,20.991,12.1,38.772v90.441h-37.963v-81.013
			c0-10.005-1.68-17.513-5.023-22.514c-3.354-5.007-8.623-7.509-15.818-7.509c-9.265,0-16.189,3.311-20.784,9.926
			c-4.585,6.619-6.881,17.119-6.881,31.51V264.61z"/>
		<path fill="#FFFFFF" d="M1735.929,267.091c-22.329,0-39.782-6.159-52.354-18.485c-12.574-12.322-18.855-29.775-18.855-52.354
			c0-23.239,5.809-41.209,17.426-53.907c11.623-12.694,27.688-19.041,48.2-19.041c19.603,0,34.862,5.582,45.779,16.748
			c10.916,11.166,16.375,26.593,16.375,46.275v18.361h-89.445c0.411,10.754,3.598,19.15,9.552,25.186
			c5.955,6.039,14.306,9.056,25.06,9.056c8.352,0,16.252-0.868,23.695-2.605c7.445-1.737,15.217-4.505,23.323-8.312v29.278
			c-6.619,3.31-13.689,5.771-21.215,7.378C1755.944,266.287,1746.762,267.091,1735.929,267.091z M1730.596,150.224
			c-8.023,0-14.313,2.542-18.857,7.633c-4.552,5.081-7.156,12.301-7.816,21.646h53.097c-0.167-9.345-2.604-16.565-7.318-21.646
			C1744.987,152.766,1738.613,150.224,1730.596,150.224z"/>
		<path fill="#FFFFFF" d="M1900.685,123.304c5.127,0,9.382,0.372,12.774,1.118l-2.851,35.48c-3.061-0.823-6.783-1.24-11.164-1.24
			c-12.079,0-21.485,3.102-28.229,9.304c-6.738,6.204-10.107,14.888-10.107,26.054v70.591h-37.839V125.909h28.658l5.583,23.323
			h1.861c4.297-7.772,10.107-14.039,17.432-18.798C1884.118,125.681,1892.08,123.304,1900.685,123.304z"/>
		<path fill="#FFFFFF" d="M1994.969,267.091c-43.173,0-64.758-23.695-64.758-71.087c0-23.572,5.868-41.581,17.614-54.026
			c11.742-12.451,28.574-18.674,50.493-18.674c16.046,0,30.437,3.146,43.18,9.43l-11.175,29.277
			c-5.951-2.398-11.494-4.362-16.62-5.891c-5.132-1.534-10.257-2.297-15.385-2.297c-19.687,0-29.526,13.98-29.526,41.934
			c0,27.13,9.84,40.693,29.526,40.693c7.277,0,14.021-0.973,20.223-2.914c6.203-1.945,12.407-4.982,18.608-9.121v32.379
			c-6.124,3.891-12.302,6.575-18.549,8.063C2012.358,266.347,2004.478,267.091,1994.969,267.091z"/>
		<path fill="#FFFFFF" d="M2132.055,267.091c-22.333,0-39.781-6.159-52.347-18.485c-12.584-12.322-18.857-29.775-18.857-52.354
			c0-23.239,5.807-41.209,17.431-53.907c11.61-12.694,27.678-19.041,48.194-19.041c19.601,0,34.855,5.582,45.772,16.748
			c10.918,11.166,16.377,26.593,16.377,46.275v18.361h-89.445c0.419,10.754,3.595,19.15,9.55,25.186
			c5.955,6.039,14.312,9.056,25.069,9.056c8.346,0,16.248-0.868,23.689-2.605c7.444-1.737,15.215-4.505,23.325-8.312v29.278
			c-6.619,3.31-13.687,5.771-21.211,7.378C2152.071,266.287,2142.891,267.091,2132.055,267.091z M2126.722,150.224
			c-8.028,0-14.312,2.542-18.858,7.633c-4.554,5.081-7.154,12.301-7.81,21.646h53.101c-0.181-9.345-2.613-16.565-7.328-21.646
			C2141.114,152.766,2134.739,150.224,2126.722,150.224z"/>
	</g>
	<path fill="#FFFFFF" d="M343.937,452.619c0,27.651-8.644,48.8-25.924,63.445c-17.285,14.647-41.863,21.968-73.732,21.968h-23.373
		v91.395h-54.483V372.475H248.5c31.169,0,54.864,6.709,71.092,20.124C335.819,406.016,343.937,426.02,343.937,452.619z
		 M220.908,493.39h17.924c16.759,0,29.293-3.306,37.615-9.929c8.318-6.616,12.476-16.258,12.476-28.913
		c0-12.767-3.489-22.201-10.457-28.295c-6.972-6.089-17.898-9.136-32.777-9.136h-24.782V493.39z"/>
	<path fill="#FFFFFF" d="M497.897,429.241c7.26,0,13.294,0.529,18.104,1.583l-4.044,50.264c-4.338-1.167-9.607-1.756-15.816-1.756
		c-17.11,0-30.439,4.396-39.988,13.179c-9.547,8.789-14.322,21.092-14.322,36.912v100.003h-53.603V432.932h40.598l7.91,33.042h2.634
		c6.089-11.013,14.322-19.886,24.693-26.625C474.435,432.61,485.709,429.241,497.897,429.241z"/>
	<path fill="#FFFFFF" d="M549.387,382.142c0-17.458,9.727-26.187,29.175-26.187c19.447,0,29.18,8.729,29.18,26.187
		c0,8.323-2.437,14.793-7.295,19.419c-4.864,4.628-12.16,6.942-21.884,6.942C559.114,408.502,549.387,399.713,549.387,382.142z
		 M605.279,629.426h-53.604V432.932h53.604V629.426z"/>
	<path fill="#FFFFFF" d="M842.896,629.426h-53.604V514.659c0-14.178-2.522-24.808-7.558-31.897
		c-5.042-7.092-13.066-10.637-24.078-10.637c-15.001,0-25.839,5.008-32.515,15.026c-6.679,10.02-10.02,26.629-10.02,49.829v92.445
		h-53.604V432.932h40.951l7.206,25.136h2.987c5.974-9.494,14.208-16.668,24.694-21.533c10.484-4.857,22.41-7.293,35.763-7.293
		c22.848,0,40.188,6.183,52.027,18.543c11.829,12.362,17.75,30.202,17.75,53.516V629.426z"/>
	<path fill="#FFFFFF" d="M980.864,590.233c9.372,0,20.618-2.051,33.744-6.154v39.898c-13.359,5.975-29.765,8.963-49.211,8.963
		c-21.444,0-37.056-5.415-46.837-16.258c-9.786-10.832-14.679-27.09-14.679-48.771v-94.729h-25.657v-22.674l29.527-17.929
		l15.464-41.477h34.274v41.828h55.009v40.251h-55.009v94.729c0,7.616,2.134,13.244,6.412,16.871
		C968.179,588.416,973.831,590.233,980.864,590.233z"/>
	<path fill="#FFFFFF" d="M1206.53,530.826v98.6h-54.481V372.475h74.867c34.916,0,60.75,6.356,77.508,19.07
		c16.753,12.715,25.137,32.013,25.137,57.908c0,15.115-4.165,28.563-12.481,40.334c-8.322,11.776-20.097,21.005-35.328,27.685
		c38.668,57.765,63.857,95.082,75.573,111.954h-60.458l-61.335-98.6H1206.53z M1206.53,486.537h17.579
		c17.219,0,29.932-2.867,38.137-8.609c8.195-5.742,12.3-14.764,12.3-27.067c0-12.186-4.188-20.856-12.564-26.012
		c-8.383-5.157-21.353-7.732-38.93-7.732h-16.521V486.537z"/>
	<path fill="#FFFFFF" d="M1474.38,632.94c-31.637,0-56.365-8.725-74.171-26.188c-17.813-17.458-26.718-42.181-26.718-74.169
		c0-32.922,8.232-58.374,24.696-76.362c16.458-17.984,39.22-26.979,68.279-26.979c27.771,0,49.39,7.909,64.857,23.729
		c15.462,15.814,23.197,37.67,23.197,65.555v26.011h-126.72c0.586,15.231,5.095,27.127,13.531,35.677
		c8.438,8.556,20.271,12.833,35.503,12.833c11.834,0,23.025-1.23,33.571-3.692c10.544-2.46,21.555-6.387,33.039-11.775v41.476
		c-9.374,4.691-19.394,8.174-30.053,10.46C1502.729,631.798,1489.723,632.94,1474.38,632.94z M1466.821,467.382
		c-11.369,0-20.277,3.603-26.72,10.808c-6.444,7.206-10.132,17.428-11.071,30.667h75.222c-0.234-13.239-3.688-23.461-10.367-30.667
		C1487.206,470.985,1478.179,467.382,1466.821,467.382z"/>
	<path fill="#FFFFFF" d="M1706.021,632.94c-23.086,0-41.187-8.373-54.309-25.13h-2.815c1.872,16.405,2.815,25.893,2.815,28.469
		v79.616h-53.604V432.932h43.586l7.557,25.488h2.462c12.535-19.449,31.11-29.179,55.714-29.179c23.197,0,41.356,8.966,54.482,26.891
		c13.121,17.93,19.687,42.826,19.687,74.694c0,20.978-3.078,39.194-9.229,54.662c-6.151,15.463-14.914,27.239-26.273,35.328
		C1734.724,628.899,1721.366,632.94,1706.021,632.94z M1690.2,472.125c-13.238,0-22.908,4.074-29,12.218
		c-6.095,8.145-9.254,21.586-9.488,40.335v5.796c0,21.091,3.131,36.207,9.404,45.346c6.262,9.142,16.192,13.707,29.788,13.707
		c24.021,0,36.029-19.795,36.029-59.4c0-19.335-2.959-33.834-8.873-43.501C1712.141,476.959,1702.854,472.125,1690.2,472.125z"/>
	<path fill="#FFFFFF" d="M2004.447,530.826c0,31.989-8.436,57.005-25.31,75.049c-16.87,18.043-40.363,27.065-70.476,27.065
		c-18.867,0-35.501-4.13-49.913-12.393c-14.414-8.258-25.487-20.123-33.218-35.586c-7.731-15.468-11.603-33.512-11.603-54.136
		c0-32.103,8.379-57.058,25.134-74.868c16.754-17.81,40.306-26.717,70.651-26.717c18.867,0,35.507,4.104,49.917,12.305
		c14.412,8.204,25.483,19.975,33.219,35.324C2000.582,492.224,2004.447,510.207,2004.447,530.826z M1868.592,530.826
		c0,19.454,3.189,34.157,9.578,44.116c6.387,9.96,16.78,14.938,31.198,14.938c14.292,0,24.573-4.947,30.839-14.848
		c6.271-9.899,9.406-24.633,9.406-44.206c0-19.447-3.162-34.032-9.487-43.763c-6.329-9.722-16.7-14.585-31.11-14.585
		c-14.297,0-24.609,4.835-30.937,14.5C1871.753,496.646,1868.592,511.26,1868.592,530.826z"/>
	<path fill="#FFFFFF" d="M2158.413,429.241c7.255,0,13.291,0.529,18.104,1.583l-4.051,50.264c-4.337-1.167-9.605-1.756-15.82-1.756
		c-17.11,0-30.429,4.396-39.977,13.179c-9.548,8.789-14.334,21.092-14.334,36.912v100.003h-53.595V432.932h40.594l7.911,33.042h2.63
		c6.094-11.013,14.333-19.886,24.693-26.625C2134.951,432.61,2146.225,429.241,2158.413,429.241z"/>
	<path fill="#FFFFFF" d="M2294.972,590.233c9.377,0,20.612-2.051,33.742-6.154v39.898c-13.359,5.975-29.763,8.963-49.217,8.963
		c-21.437,0-37.05-5.415-46.826-16.258c-9.785-10.832-14.687-27.09-14.687-48.771v-94.729h-25.648v-22.674l29.518-17.929
		l15.462-41.477h34.28v41.828h55.004v40.251h-55.004v94.729c0,7.616,2.135,13.244,6.414,16.871
		C2282.286,588.416,2287.934,590.233,2294.972,590.233z"/>
</g>
<circle fill="#5B99D5" cx="1808.227" cy="-365.702" r="357.448"/>
<g>
	<path fill-rule="evenodd" clip-rule="evenodd" fill="#FFFFFF" d="M2021.075-429.16c0.039-8.425-8.87-16.948-17.012-16.807
		c-17.095,0.295-34.2,0.089-51.879,0.089c0-40.298,0-80.39,0-120.483c-92.183,0-184.365,0-276.548,0c0,39.997,0,79.995,0,120.483
		c-1.719,0-3.151,0-4.582,0c-15.766,0-31.537,0.216-47.298-0.088c-8.143-0.157-17.051,8.38-17.012,16.807
		c0.294,63.739,0.304,127.48-0.008,191.218c-0.041,8.651,9.036,17.165,17.286,16.967c15.623-0.376,31.26-0.109,46.893-0.109
		c1.444,0,2.889,0,4.63,0c0,22.979,0,45.567,0,68.443c92.247,0,184.194,0,276.588,0c0-22.684,0-45.369,0-68.443
		c1.884,0,3.328,0,4.773,0c15.632,0,31.269-0.267,46.893,0.108c8.247,0.199,17.325-8.314,17.284-16.967
		C2020.772-301.681,2020.782-365.421,2021.075-429.16z M1917.122-187.296c-68.946,0-137.61,0-206.494,0c0-40.005,0-79.834,0-119.987
		c68.683,0,137.442,0,206.494,0C1917.122-267.474,1917.122-227.549,1917.122-187.296z M1917.123-446.054
		c-68.954,0-137.614,0-206.497,0c0-28.416,0-56.657,0-85.217c68.69,0,137.448,0,206.497,0
		C1917.123-503.047,1917.123-474.709,1917.123-446.054z M1969.36-377.145c-10.577,0.174-16.552-8.006-17.06-16.799
		c-0.524-9.075,9.465-16.338,16.05-16.633c8.979-0.403,17.867,7.852,17.676,16.247C1985.832-385.83,1979.957-377.15,1969.36-377.145
		z"/>
	<path fill-rule="evenodd" clip-rule="evenodd" fill="#FFFFFF" d="M1883.234-273.403c-46.329,0-92.443,0-138.576,0
		c0,5.944,0,11.645,0,17.381c46.306,0,92.323,0,138.576,0C1883.234-262.085,1883.234-267.689,1883.234-273.403z"/>
	<path fill-rule="evenodd" clip-rule="evenodd" fill="#FFFFFF" d="M1831.506-238.672c-28.962,0-57.73,0-86.87,0
		c0,5.939,0,11.637,0,17.299c29.13,0,57.993,0,86.87,0C1831.506-227.269,1831.506-232.873,1831.506-238.672z"/>
</g>
</svg>
